# xmcd
#
# Track frame offsets:
#	150
#	16623
#	34145
#	51157
#	66700
#	84380
#	101906
#	118303
#	133822
#	150785
#	165850
#
# Disc length: 2438 seconds
#
# Revision: 1
# Processed by: cddbd v1.5.2PL0 Copyright (c) Steve Scherf et al.
# Submitted via: audiograbber 1.83.01
#
DISCID=8909840b
DTITLE=Victoria Banks - When You Can Fly
DYEAR=2009
DGENRE=Country
TTITLE0=The Wheel
TTITLE1=Long Gone Train
TTITLE2=Sacred
TTITLE3=When You Can Fly
TTITLE4=I Can't
TTITLE5=Don't Leave The Leavin' (Feat. Jason Blaine)
TTITLE6=Kiss Me
TTITLE7=This Old Halo
TTITLE8=Back To The River
TTITLE9=The World Turns
TTITLE10=Some Men Don't Cheat
EXTD=
EXTT0=
EXTT1=
EXTT2=
EXTT3=
EXTT4=
EXTT5=
EXTT6=
EXTT7=
EXTT8=
EXTT9=
EXTT10=
PLAYORDER=
